<?xml version="1.0" standalone="no"?>
<!DOCTYPE svg PUBLIC "-//W3C//DTD SVG 20010904//EN"
 "http://www.w3.org/TR/2001/REC-SVG-20010904/DTD/svg10.dtd">
<svg version="1.0" xmlns="http://www.w3.org/2000/svg"
 width="512.000000pt" height="512.000000pt" viewBox="0 0 512.000000 512.000000"
 preserveAspectRatio="xMidYMid meet">

<g transform="translate(0.000000,512.000000) scale(0.100000,-0.100000)"
fill="#3e4e3d" stroke="none">
<path d="M3509 5036 c-149 -31 -348 -114 -534 -221 -112 -64 -311 -193 -366
-236 -20 -16 -41 -29 -46 -29 -5 0 -47 48 -93 106 -191 241 -370 348 -484 289
-160 -84 -263 -289 -283 -565 l-6 -87 -86 -6 c-47 -3 -118 -13 -157 -23 l-72
-17 -58 27 c-317 150 -598 31 -703 -298 -33 -102 -61 -271 -61 -365 l0 -61
-51 -26 c-123 -62 -199 -171 -207 -298 -6 -102 37 -235 110 -339 19 -27 19
-28 0 -80 -44 -116 -37 -199 21 -260 l32 -34 64 8 c66 9 101 29 101 58 0 9
-16 40 -36 70 -20 29 -30 51 -23 49 13 -4 27 16 85 122 20 37 17 63 -13 106
-14 21 -40 59 -56 83 -47 68 -76 149 -77 209 0 47 4 58 30 82 17 16 60 37 106
51 115 35 120 44 127 225 6 159 24 270 62 371 80 211 197 243 432 117 46 -24
93 -44 105 -44 12 0 56 12 97 26 108 38 216 38 287 1 83 -42 110 -103 123
-279 10 -123 25 -143 123 -163 94 -20 168 -50 212 -86 35 -29 38 -36 33 -70
-3 -20 -20 -58 -38 -84 -128 -178 -157 -235 -166 -337 -15 -153 81 -260 292
-328 93 -30 122 -52 149 -115 28 -62 57 -85 107 -85 46 0 95 38 104 81 9 41
-27 136 -72 189 -34 39 -35 44 -29 94 16 138 78 236 150 236 48 0 145 -33 226
-77 58 -31 154 -101 288 -208 82 -65 150 -38 192 77 95 264 284 487 413 488
15 0 57 -9 92 -21 77 -25 162 -98 261 -225 36 -46 75 -91 87 -99 32 -22 87
-19 127 8 26 18 91 47 104 47 1 0 0 -39 -2 -87 -4 -133 -32 -214 -92 -274 -57
-57 -70 -78 -70 -114 0 -60 47 -105 109 -105 63 0 179 124 220 236 34 91 44
144 44 249 1 123 -22 185 -90 245 -62 54 -128 69 -207 46 l-58 -17 -92 92 -92
92 52 51 c81 82 103 180 59 266 -25 49 -102 106 -218 163 -108 53 -257 107
-298 107 -10 0 -19 1 -19 3 0 1 35 72 78 157 43 85 94 202 113 260 31 97 34
115 34 231 0 120 -1 128 -30 184 -34 67 -101 125 -175 151 -61 22 -209 27
-291 10z m226 -216 c56 -27 75 -63 75 -145 0 -121 -93 -335 -242 -559 -110
-164 -113 -171 -99 -217 13 -44 58 -79 102 -79 14 0 44 12 65 26 36 25 42 26
87 15 76 -17 193 -67 302 -128 55 -31 102 -58 104 -59 8 -7 -45 -43 -105 -74
-55 -28 -68 -31 -115 -25 -70 8 -183 -15 -251 -52 -113 -61 -258 -231 -334
-391 -16 -34 -33 -61 -38 -61 -4 -1 -25 13 -46 29 -21 17 -85 59 -142 94 -99
60 -105 66 -144 137 -64 114 -64 111 2 158 91 65 151 83 272 82 102 -1 104 0
133 28 23 24 29 38 29 73 -1 75 -38 104 -148 114 -121 11 -265 -26 -368 -96
-26 -17 -49 -28 -53 -25 -3 4 -6 43 -6 88 1 141 40 182 347 356 205 116 264
203 227 334 -21 75 -112 101 -171 48 -28 -25 -33 -36 -33 -76 l-1 -48 -140
-80 c-179 -102 -309 -191 -342 -235 -63 -80 -36 -83 -232 24 -96 53 -188 98
-205 101 -44 7 -97 -32 -109 -80 -7 -29 -6 -45 7 -71 13 -29 45 -50 222 -146
113 -62 210 -120 214 -129 5 -9 11 -43 14 -76 8 -73 56 -244 85 -302 12 -23
22 -47 22 -52 0 -6 -19 -15 -42 -22 -146 -39 -245 -154 -278 -323 -8 -36 -17
-66 -22 -66 -17 0 -83 31 -101 48 -52 47 -40 89 68 235 135 183 138 354 8 483
-37 37 -171 106 -228 118 -29 6 -31 11 -47 88 -21 100 -72 208 -128 271 l-43
48 6 122 c7 137 33 253 73 327 25 47 91 110 114 110 36 0 188 -186 306 -373
53 -86 88 -112 138 -104 18 3 77 39 139 86 299 225 583 388 779 446 107 31
215 33 273 5z"/>
<path d="M1047 3690 c-40 -31 -50 -81 -50 -230 0 -118 19 -271 39 -324 4 -11
-32 -5 -145 25 -142 37 -152 39 -185 25 -71 -30 -86 -133 -26 -178 14 -10 124
-44 245 -77 120 -32 221 -64 223 -70 17 -51 209 -304 255 -336 35 -25 92 -19
127 12 66 61 280 704 280 841 0 62 -41 102 -103 102 -70 0 -90 -27 -122 -168
-27 -118 -123 -420 -148 -468 l-14 -26 -49 78 c-61 96 -111 204 -137 298 -17
57 -21 106 -23 251 -2 99 -3 186 -3 193 -1 8 -14 27 -30 43 -36 36 -95 40
-134 9z"/>
<path d="M3845 3181 c-53 -25 -109 -85 -136 -146 -31 -70 -38 -238 -15 -368
21 -115 42 -152 94 -168 51 -15 63 -9 233 118 240 179 282 228 259 299 -15 46
-54 74 -101 74 -32 0 -48 -9 -101 -56 -34 -30 -89 -75 -122 -100 -65 -49 -76
-47 -76 16 0 63 18 102 70 150 45 41 50 51 50 88 0 82 -78 129 -155 93z"/>
<path d="M154 2306 c-40 -40 -41 -51 -19 -199 66 -439 292 -869 643 -1224 224
-227 446 -386 757 -544 l170 -86 5 -103 c5 -96 6 -103 33 -126 l28 -24 789 0
789 0 28 24 c26 23 28 30 33 126 l5 102 170 87 c313 160 523 311 753 541 371
371 614 859 658 1317 l7 72 -36 36 -35 35 -2372 0 -2372 0 -34 -34z m4612
-218 c-13 -83 -56 -240 -92 -331 -103 -268 -246 -487 -464 -711 -239 -245
-529 -443 -848 -578 -151 -64 -162 -77 -162 -185 l0 -73 -640 0 -640 0 0 73
c0 108 -11 121 -162 185 -582 246 -1062 701 -1281 1213 -25 58 -55 137 -67
175 -23 75 -60 234 -60 259 0 13 245 15 2211 15 l2212 0 -7 -42z"/>
</g>
</svg>
